<svg width="362" height="388" viewBox="0 0 362 388" fill="none" xmlns="http://www.w3.org/2000/svg">
<rect x="101.366" y="18" width="261" height="299" rx="20" transform="rotate(19.8169 101.366 18)" fill="#194971"/>
<rect x="101" width="261" height="299" rx="20" fill="white"/>
<g filter="url(#filter0_d_74_802)">
<rect x="157" y="105" width="150" height="89" rx="5" fill="#194971"/>
</g>
<path d="M202.518 156.989C201.313 157.445 199.946 157.673 198.416 157.673C193.403 157.673 190.896 155.248 190.896 150.397C190.896 145.807 193.403 143.513 198.416 143.513C199.946 143.513 201.313 143.74 202.518 144.196V146.54C201.313 146.019 200.011 145.759 198.611 145.759C195.258 145.759 193.582 147.305 193.582 150.397C193.582 153.75 195.258 155.427 198.611 155.427C200.011 155.427 201.313 155.166 202.518 154.645V156.989ZM207.547 143.61V155.329H213.094V157.575H204.959V143.61H207.547ZM217.742 150.554C217.742 153.802 219.184 155.427 222.068 155.427C224.881 155.427 226.287 153.802 226.287 150.554C226.287 147.357 224.881 145.759 222.068 145.759C219.184 145.759 217.742 147.357 217.742 150.554ZM215.057 150.612C215.057 145.879 217.394 143.513 222.068 143.513C226.671 143.513 228.973 145.879 228.973 150.612C228.973 155.319 226.671 157.673 222.068 157.673C217.602 157.673 215.265 155.319 215.057 150.612ZM231.18 156.989V154.645C232.579 155.166 234.161 155.427 235.926 155.427C238.068 155.427 239.139 154.71 239.139 153.278C239.139 152.236 238.481 151.716 237.166 151.716H234.979C232.12 151.716 230.691 150.414 230.691 147.809C230.691 144.945 232.726 143.513 236.795 143.513C238.357 143.513 239.839 143.74 241.238 144.196V146.54C239.839 146.019 238.357 145.759 236.795 145.759C234.451 145.759 233.279 146.442 233.279 147.809C233.279 148.851 233.846 149.372 234.979 149.372H237.166C240.206 149.372 241.727 150.674 241.727 153.278C241.727 156.208 239.793 157.673 235.926 157.673C234.161 157.673 232.579 157.445 231.18 156.989ZM253.484 143.61V145.837H246.492V149.352H253.152V151.667H246.463V155.329H253.621V157.575H243.924V143.61H253.484ZM261.482 155.329C264.38 155.329 265.828 153.623 265.828 150.212C265.828 147.308 264.38 145.856 261.482 145.856H258.602V155.329H261.482ZM256.014 157.575V143.61H261.482C266.105 143.61 268.416 145.811 268.416 150.212C268.416 155.121 266.105 157.575 261.482 157.575H256.014ZM277.605 143.61V153.962H275.018V143.61H277.605ZM277.605 155.182V157.575H275.018V155.182H277.605Z" fill="white"/>
<defs>
<filter id="filter0_d_74_802" x="153" y="105" width="158" height="97" filterUnits="userSpaceOnUse" color-interpolation-filters="sRGB">
<feFlood flood-opacity="0" result="BackgroundImageFix"/>
<feColorMatrix in="SourceAlpha" type="matrix" values="0 0 0 0 0 0 0 0 0 0 0 0 0 0 0 0 0 0 127 0" result="hardAlpha"/>
<feOffset dy="4"/>
<feGaussianBlur stdDeviation="2"/>
<feComposite in2="hardAlpha" operator="out"/>
<feColorMatrix type="matrix" values="0 0 0 0 0 0 0 0 0 0 0 0 0 0 0 0 0 0 0.25 0"/>
<feBlend mode="normal" in2="BackgroundImageFix" result="effect1_dropShadow_74_802"/>
<feBlend mode="normal" in="SourceGraphic" in2="effect1_dropShadow_74_802" result="shape"/>
</filter>
</defs>
</svg>
