<svg width="384" height="388" viewBox="0 0 384 388" fill="none" xmlns="http://www.w3.org/2000/svg">
<circle cx="165.5" cy="222.5" r="165.5" fill="#194771"/>
<rect x="123" width="261" height="299" rx="20" fill="white"/>
<g filter="url(#filter0_d_74_604)">
<rect x="179" y="233" width="150" height="40" rx="5" fill="#194971"/>
</g>
<path d="M211.822 259.98V246.035H218.17C221.021 246.035 222.447 247.282 222.447 249.775C222.447 251.462 221.337 252.858 219.117 253.965L223.541 260H220.279L216.031 253.916V252.734C218.505 252.311 219.742 251.351 219.742 249.854C219.742 248.825 219.163 248.311 218.004 248.311H214.459V259.98H211.822ZM234.332 246.035V248.262H227.34V251.777H234V254.092H227.311V257.754H234.469V260H224.771V246.035H234.332ZM247.994 259.355C246.868 259.85 245.458 260.098 243.766 260.098C238.837 260.098 236.373 257.673 236.373 252.822C236.373 248.232 238.88 245.938 243.893 245.938C245.423 245.938 246.79 246.165 247.994 246.621V248.965C246.79 248.444 245.488 248.184 244.088 248.184C240.735 248.184 239.059 249.73 239.059 252.822C239.059 256.175 240.641 257.852 243.805 257.852C244.273 257.852 244.807 257.773 245.406 257.617V253.555H247.994V259.355ZM253.023 246.035V260H250.436V246.035H253.023ZM255.719 259.414V257.07C257.118 257.591 258.701 257.852 260.465 257.852C262.607 257.852 263.678 257.135 263.678 255.703C263.678 254.661 263.02 254.141 261.705 254.141H259.518C256.66 254.141 255.23 252.839 255.23 250.234C255.23 247.37 257.265 245.938 261.334 245.938C262.896 245.938 264.378 246.165 265.777 246.621V248.965C264.378 248.444 262.896 248.184 261.334 248.184C258.99 248.184 257.818 248.867 257.818 250.234C257.818 251.276 258.385 251.797 259.518 251.797H261.705C264.745 251.797 266.266 253.099 266.266 255.703C266.266 258.633 264.332 260.098 260.465 260.098C258.701 260.098 257.118 259.87 255.719 259.414ZM277.594 246.035V248.281H273.59V260H271.002V248.281H266.998V246.035H277.594ZM288.629 246.035V248.262H281.637V251.777H288.297V254.092H281.607V257.754H288.766V260H279.068V246.035H288.629ZM291.158 259.98V246.035H297.506C300.357 246.035 301.783 247.282 301.783 249.775C301.783 251.462 300.673 252.858 298.453 253.965L302.877 260H299.615L295.367 253.916V252.734C297.841 252.311 299.078 251.351 299.078 249.854C299.078 248.825 298.499 248.311 297.34 248.311H293.795V259.98H291.158Z" fill="white"/>
<rect x="153" y="32" width="202" height="50" rx="7" fill="#D9D9D9" fill-opacity="0.5"/>
<rect x="153" y="92" width="202" height="50" rx="7" fill="#D9D9D9" fill-opacity="0.5"/>
<rect x="153" y="154" width="202" height="50" rx="7" fill="#D9D9D9" fill-opacity="0.5"/>
<defs>
<filter id="filter0_d_74_604" x="175" y="233" width="158" height="48" filterUnits="userSpaceOnUse" color-interpolation-filters="sRGB">
<feFlood flood-opacity="0" result="BackgroundImageFix"/>
<feColorMatrix in="SourceAlpha" type="matrix" values="0 0 0 0 0 0 0 0 0 0 0 0 0 0 0 0 0 0 127 0" result="hardAlpha"/>
<feOffset dy="4"/>
<feGaussianBlur stdDeviation="2"/>
<feComposite in2="hardAlpha" operator="out"/>
<feColorMatrix type="matrix" values="0 0 0 0 0 0 0 0 0 0 0 0 0 0 0 0 0 0 0.25 0"/>
<feBlend mode="normal" in2="BackgroundImageFix" result="effect1_dropShadow_74_604"/>
<feBlend mode="normal" in="SourceGraphic" in2="effect1_dropShadow_74_604" result="shape"/>
</filter>
</defs>
</svg>
